<svg width="888" height="581" viewBox="0 0 888 581" fill="none" xmlns="http://www.w3.org/2000/svg">
<g id="undraw_mobile_development_8gyo 1">
<g clip-path="url(#clip0)">
<g id="Person">
<path id="Vector" d="M148.558 380.085C148.558 380.085 159.363 397.221 155.504 401.861C151.646 406.501 184.454 406.617 184.454 406.617C184.454 406.617 179.526 381.689 180.976 375.952L148.558 380.085Z" fill="#FFB8B8"/>
<path id="Vector_2" d="M165.825 386.295C184.537 386.295 199.705 371.127 199.705 352.416C199.705 333.705 184.537 318.536 165.825 318.536C147.114 318.536 131.946 333.705 131.946 352.416C131.946 371.127 147.114 386.295 165.825 386.295Z" fill="#2F2E41"/>
<path id="Vector_3" d="M245.51 536.052V556.137L265.594 551.952L263.921 537.726L245.51 536.052Z" fill="#FFB8B8"/>
<path id="Vector_4" d="M316.642 539.4L372.712 548.605L358.485 569.526C358.485 569.526 319.153 556.137 309.111 556.137C299.069 556.137 316.642 539.4 316.642 539.4Z" fill="#FFB8B8"/>
<path id="Vector_5" d="M189.441 499.231C189.441 499.231 231.284 450.693 244.673 453.204C258.063 455.714 263.921 470.778 263.921 470.778L271.452 545.258C271.452 545.258 244.673 547.768 244.673 545.258C244.673 542.747 239.652 489.188 239.652 489.188C239.652 489.188 200.32 576.221 179.399 518.478L189.441 499.231Z" fill="#D0CDE1"/>
<path id="Vector_6" d="M121.656 531.868C121.656 531.868 122.493 575.71 147.598 578.221C172.704 580.732 200.32 559.484 200.32 559.484L245.51 537.835C245.51 537.835 299.069 566.179 314.969 558.647C314.969 558.647 331.706 541.073 320.827 536.052C309.948 531.031 319.99 536.052 319.99 536.052L255.552 502.578C255.552 502.578 242.999 499.231 221.241 508.436C199.483 517.641 170.193 521.826 170.193 521.826L121.656 531.868Z" fill="#D0CDE1"/>
<path id="Vector_7" d="M163.498 388.766C177.364 388.766 188.604 377.526 188.604 363.66C188.604 349.795 177.364 338.555 163.498 338.555C149.633 338.555 138.393 349.795 138.393 363.66C138.393 377.526 149.633 388.766 163.498 388.766Z" fill="#FFB8B8"/>
<path id="Vector_8" d="M199.483 433.956L197.809 469.104C197.809 469.104 198.646 515.131 191.115 518.478C187.307 520.169 179.658 523.566 172.587 527.282C167.281 530.06 162.302 533.006 159.523 535.542C158.787 536.168 158.152 536.905 157.64 537.726C154.293 543.584 132.535 542.747 127.514 538.563C122.493 534.378 125.84 543.584 121.656 545.257C117.605 546.881 111.99 533.608 115.43 513.792C115.538 513.131 115.664 512.461 115.798 511.783C119.639 492.578 113.605 446.576 114.534 428.801C114.588 427.443 114.731 426.09 114.961 424.751C117.471 411.361 149.506 384.113 155.498 395.72C162.879 410.047 179.834 396.959 182.746 390.44C199.483 389.603 205.341 409.687 205.341 409.687L199.483 433.956Z" fill="#6C63FF"/>
<path id="Vector_9" d="M267.268 548.605C267.268 548.605 253.879 553.626 249.694 552.789C245.51 551.952 241.326 555.3 241.326 560.321C241.326 565.342 236.305 577.058 243.836 577.895C251.368 578.732 282.332 577.058 289.026 579.568C289.026 579.568 319.153 580.405 316.642 567.853C314.132 555.3 301.579 556.137 301.579 556.137C301.579 556.137 267.268 554.463 267.268 548.605Z" fill="#2F2E41"/>
<path id="Vector_10" d="M365.18 551.115C365.18 551.115 366.854 546.094 369.364 546.094C371.875 546.094 391.959 549.442 394.47 548.605C396.98 547.768 426.27 546.094 421.249 560.321C416.228 574.547 399.491 576.221 399.491 576.221C399.491 576.221 369.364 572.874 365.18 573.71C360.996 574.547 345.932 573.71 348.443 569.526C350.953 565.342 366.854 557.81 365.18 551.115Z" fill="#2F2E41"/>
<g id="Laptop">
<path id="Vector_11" d="M289.005 430.913L293.596 449.851C293.647 450.062 293.639 450.284 293.573 450.49L272.746 515.572C272.664 515.83 272.496 516.052 272.27 516.201C272.043 516.349 271.773 516.416 271.504 516.389C271.235 516.363 270.982 516.245 270.79 516.055C270.597 515.865 270.475 515.614 270.445 515.346L267.564 489.992C267.544 489.824 267.562 489.653 267.614 489.492L286.73 430.825C286.81 430.58 286.968 430.368 287.179 430.221C287.39 430.074 287.643 430 287.901 430.01C288.158 430.02 288.405 430.113 288.604 430.276C288.803 430.439 288.944 430.663 289.005 430.913V430.913Z" fill="#3F3D56"/>
<path id="Vector_12" d="M287.316 432.512L291.555 448.761L273.186 508.105L268.947 489.737L287.316 432.512Z" fill="white"/>
<path id="Vector_13" d="M194.768 520.821C195.474 522.941 268.241 520.115 268.947 519.409C269.563 518.524 270.084 517.577 270.502 516.583C271.166 515.17 271.773 513.757 271.773 513.757L268.947 490.881L196.887 488.324C196.887 488.324 195.085 507.709 194.718 516.583C194.593 517.994 194.609 519.414 194.768 520.821V520.821Z" fill="#3F3D56"/>
<path id="Vector_14" opacity="0.1" d="M259.763 493.975L261.176 513.757H229.385V493.975H259.763Z" fill="black"/>
<path id="Vector_15" opacity="0.1" d="M218.788 500.334L218.978 500.296L218.081 508.811H200.419V500.334H218.788Z" fill="black"/>
<path id="Vector_16" opacity="0.1" d="M194.768 520.821C195.474 522.941 268.241 520.115 268.947 519.409C269.563 518.524 270.084 517.577 270.502 516.583H194.718C194.593 517.994 194.61 519.414 194.768 520.821V520.821Z" fill="black"/>
</g>
<path id="Vector_17" d="M171.439 324.821C176.653 324.821 180.88 320.593 180.88 315.379C180.88 310.164 176.653 305.937 171.439 305.937C166.224 305.937 161.997 310.164 161.997 315.379C161.997 320.593 166.224 324.821 171.439 324.821Z" fill="#2F2E41"/>
<path id="Vector_18" d="M168.599 325.656C168.599 325.656 158.953 341.702 136.521 347.709C114.089 353.715 136.338 387.424 136.338 387.424C136.338 387.424 128.247 375.166 139.917 362.185C151.586 349.204 170.365 340.329 168.599 325.656Z" fill="#2F2E41"/>
<path id="Vector_19" opacity="0.1" d="M172.587 527.282C170.52 531.19 168.093 535.249 167.683 536.889C167.407 538.002 164.344 537.358 159.523 535.542C149.858 531.885 133.104 523.508 117.472 515.131C116.751 514.749 116.067 514.3 115.43 513.792C115.538 513.131 115.664 512.461 115.798 511.783C119.639 492.578 113.605 446.576 114.534 428.801L121.656 426.424L135.882 439.814V496.72C135.882 496.72 172.704 516.805 175.214 518.478C176.495 519.332 174.729 523.223 172.587 527.282Z" fill="black"/>
<path id="Vector_20" d="M203.667 481.657L226.262 493.373C226.262 493.373 239.652 479.146 248.021 490.025C256.389 500.904 223.752 504.252 223.752 504.252C223.752 504.252 195.299 497.557 194.462 488.351C193.625 479.146 203.667 481.657 203.667 481.657Z" fill="#FFB8B8"/>
<path id="Vector_21" d="M166.009 512.62L179.399 515.968C179.399 515.968 194.462 497.557 210.362 504.252C226.262 510.947 190.278 524.336 190.278 524.336C190.278 524.336 171.03 534.378 163.498 526.01C155.967 517.641 166.009 512.62 166.009 512.62Z" fill="#FFB8B8"/>
<path id="Vector_22" d="M195.299 402.156C196.136 402.993 205.341 409.687 205.341 409.687C205.341 409.687 207.852 441.488 204.504 448.183C201.157 454.877 198.646 454.877 201.157 458.225C203.667 461.572 207.015 459.062 203.667 464.92C200.32 470.778 196.973 469.941 199.483 472.451C201.994 474.962 201.157 475.799 201.157 475.799L211.199 484.167C211.199 484.167 205.038 493.98 197.239 493.258C189.441 492.536 182.746 454.877 182.746 454.877L195.299 402.156Z" fill="#6C63FF"/>
<path id="Vector_23" d="M121.656 422.24L114.124 424.751C114.124 424.751 94.0397 498.394 117.472 510.947C140.903 523.499 166.846 536.052 167.683 532.705C168.52 529.357 177.725 515.968 175.214 514.294C172.704 512.62 135.882 492.536 135.882 492.536V435.63L121.656 422.24Z" fill="#6C63FF"/>
<path id="Vector_24" opacity="0.1" d="M132.953 452.785L131.28 492.954L175.633 513.876L134.627 492.954L132.953 452.785Z" fill="black"/>
</g>
<g id="Phone">
<path id="Vector_25" d="M778.4 133.76V199.44C778.398 200.047 778.156 200.628 777.727 201.057C777.298 201.487 776.717 201.728 776.11 201.73H774.48V543.88C774.479 553.348 770.718 562.428 764.023 569.123C757.328 575.818 748.248 579.579 738.78 579.58H524.99C520.302 579.58 515.661 578.656 511.33 576.861C506.999 575.067 503.065 572.437 499.751 569.122C496.436 565.807 493.808 561.872 492.015 557.541C490.221 553.209 489.299 548.568 489.3 543.88V213.73H488.12C487.692 213.731 487.281 213.562 486.977 213.26C486.673 212.958 486.502 212.548 486.5 212.12V174.74C486.5 174.527 486.542 174.317 486.623 174.12C486.704 173.923 486.824 173.745 486.974 173.594C487.125 173.444 487.303 173.325 487.5 173.243C487.696 173.162 487.907 173.12 488.12 173.12H489.3V159.04H488.11C487.66 159.038 487.23 158.858 486.913 158.54C486.596 158.221 486.419 157.789 486.42 157.34V120.47C486.421 120.022 486.599 119.593 486.916 119.276C487.233 118.96 487.662 118.781 488.11 118.78H489.3V99.56H488.09C487.893 99.5603 487.697 99.5217 487.515 99.4464C487.333 99.3711 487.168 99.2606 487.028 99.1213C486.889 98.982 486.779 98.8165 486.703 98.6344C486.628 98.4523 486.589 98.2571 486.59 98.06V77.94C486.589 77.541 486.746 77.1579 487.027 76.8748C487.309 76.5918 487.691 76.4318 488.09 76.43H489.3V35.69C489.3 26.2246 493.06 17.1469 499.754 10.4538C506.447 3.76068 515.524 0.000391488 524.99 4.67304e-05H738.78C748.246 3.93861e-06 757.325 3.75985 764.02 10.4527C770.715 17.1456 774.477 26.2235 774.48 35.69V131.47H776.11C776.717 131.472 777.298 131.713 777.727 132.143C778.156 132.572 778.398 133.153 778.4 133.76V133.76Z" fill="#3F3D56"/>
<path id="Vector_26" d="M642.185 18.3068H607.445C606.041 18.3068 604.903 19.4448 604.903 20.8487V23.8513C604.903 25.2552 606.041 26.3932 607.445 26.3932H642.185C643.589 26.3932 644.727 25.2552 644.727 23.8513V20.8487C644.727 19.4448 643.589 18.3068 642.185 18.3068Z" fill="#E6E8EC"/>
<path id="Vector_27" d="M655.335 26.9366C657.868 26.9366 659.921 24.8831 659.921 22.35C659.921 19.8169 657.868 17.7633 655.335 17.7633C652.802 17.7633 650.748 19.8169 650.748 22.35C650.748 24.8831 652.802 26.9366 655.335 26.9366Z" fill="#E6E8EC"/>
<g id="Screen">
<path id="ScreenBackground" d="M757.385 42.7498V546.84C757.382 552.845 754.994 558.604 750.747 562.849C746.5 567.095 740.74 569.48 734.735 569.48H530.085C527.11 569.485 524.163 568.903 521.413 567.767C518.663 566.631 516.165 564.964 514.061 562.861C511.957 560.758 510.288 558.26 509.151 555.511C508.014 552.761 507.431 549.815 507.435 546.84V42.7498C507.435 39.7753 508.02 36.83 509.159 34.0819C510.297 31.3338 511.965 28.8369 514.069 26.7336C516.172 24.6303 518.669 22.9619 521.417 21.8237C524.165 20.6855 527.11 20.0997 530.085 20.0998H560.715V24.0298C560.715 28.9761 562.68 33.7198 566.177 37.2173C569.675 40.7149 574.418 42.6798 579.365 42.6798H683.445C688.391 42.6798 693.135 40.7149 696.632 37.2173C700.13 33.7198 702.095 28.9761 702.095 24.0298V20.0998H734.735C737.709 20.0989 740.655 20.6841 743.404 21.822C746.152 22.9599 748.649 24.6283 750.753 26.7317C752.856 28.8351 754.525 31.3324 755.663 34.0809C756.8 36.8294 757.386 39.7751 757.385 42.7498V42.7498Z" fill="white"/>
<g id="ScreenContent">
<path id="Vector_29" d="M736.827 351.959H528.827V378.959H736.827V351.959Z" fill="#E6E6E6"/>
<path id="Vector_30" d="M736.827 399.959H528.827V426.959H736.827V399.959Z" fill="#E6E6E6"/>
<path id="Vector_31" d="M736.827 447.959H528.827V474.959H736.827V447.959Z" fill="#E6E6E6"/>
<path id="Vector_32" d="M713.827 110.959C724.872 110.959 733.827 102.005 733.827 90.9588C733.827 79.9131 724.872 70.9588 713.827 70.9588C702.781 70.9588 693.827 79.9131 693.827 90.9588C693.827 102.005 702.781 110.959 713.827 110.959Z" fill="#6C63FF"/>
<path id="Vector_33" d="M736.41 157.959H528.41V295.959H736.41V157.959Z" fill="#E6E6E6"/>
<path id="Vector_34" d="M611.235 235.55C617.309 258 638.111 271.904 638.111 271.904C638.111 271.904 649.066 249.409 642.993 226.959C636.92 204.509 616.118 190.605 616.118 190.605C616.118 190.605 605.162 213.1 611.235 235.55Z" fill="#3F3D56"/>
<path id="Vector_35" d="M620.159 230.725C636.824 246.948 638.86 271.885 638.86 271.885C638.86 271.885 613.876 270.521 597.211 254.299C580.547 238.076 578.511 213.138 578.511 213.138C578.511 213.138 603.495 214.502 620.159 230.725Z" fill="#6C63FF"/>
<path id="Vector_36" d="M666.484 235.55C660.411 258 639.609 271.904 639.609 271.904C639.609 271.904 628.654 249.409 634.727 226.959C640.8 204.509 661.602 190.605 661.602 190.605C661.602 190.605 672.557 213.1 666.484 235.55Z" fill="#3F3D56"/>
<path id="Vector_37" d="M657.56 230.725C640.895 246.948 638.86 271.885 638.86 271.885C638.86 271.885 663.843 270.521 680.508 254.299C697.173 238.076 699.209 213.138 699.209 213.138C699.209 213.138 674.225 214.502 657.56 230.725Z" fill="#6C63FF"/>
</g>
</g>
</g>
<g id="Floor">
<path id="Vector_38" d="M888 578.483H0V580.723H888V578.483Z" fill="#3F3D56"/>
</g>
</g>
</g>
<defs>
<clipPath id="clip0">
<rect width="888" height="580.723" fill="white"/>
</clipPath>
</defs>
</svg>
